{"title":"John.Carter.BrRip.Xvid.Audio.Latino","uid":7287312,"size":1524014738,"categoryP":"video","categoryS":"movies","magnet":"?xt=urn:btih:0d00c024989e00e269fead2b5f1af9573018365a&amp;dn=John.Carter.BrRip.Xvid.Audio.Latino&amp;tr=udp%3A%2F%2Ftracker.openbittorrent.com%3A80&amp;tr=udp%3A%2F%2Fopen.demonii.com%3A1337&amp;tr=udp%3A%2F%2Ftracker.coppersurfer.tk%3A6969&amp;tr=udp%3A%2F%2Fexodus.desync.com%3A6969","seeders":1,"leechers":0,"uploader":"[misio]","files":-1,"time":1337623290,"description":"\nFormat                           : AVI\nFormat/Info                      : Audio Video Interleave\nFormat profile                   : OpenDML\nFile size                        : 1.42 GiB\nDuration                         : 2h 12mn\nOverall bit rate                 : 1 539 Kbps\nWriting application              : MEncoder SVN-r30881(20100311-gcc4.3.3)\nWriting library                  : MPlayer\n\nVideo\nID                               : 0\nFormat                           : MPEG-4 Visual\nFormat profile                   : Advanced Simple@L5\nFormat settings, BVOP            : 2\nFormat settings, QPel            : No\nFormat settings, GMC             : No warppoints\nFormat settings, Matrix          : Default (H.263)\nCodec ID                         : XVID\nCodec ID/Hint                    : XviD\nDuration                         : 2h 12mn\nBit rate                         : 1 398 Kbps\nWidth                            : 720 pixels\nHeight                           : 304 pixels\nDisplay aspect ratio             : 2.35:1\nFrame rate                       : 23.976 fps\nColor space                      : YUV\nChroma subsampling               : 4:2:0\nBit depth                        : 8 bits\nScan type                        : Progressive\nCompression mode                 : Lossy\nBits/(Pixel*Frame)               : 0.266\nStream size                      : 1.29 GiB (91%)\nWriting library                  : XviD 1.2.1 (UTC 2008-12-04)\n\nAudio\nID                               : 1\nFormat                           : MPEG Audio\nFormat version                   : Version 1\nFormat profile                   : Layer 3\nMode                             : Joint stereo\nMode extension                   : MS Stereo\nCodec ID                         : 55\nCodec ID/Hint                    : MP3\nDuration                         : 2h 12mn\nBit rate mode                    : Constant\nBit rate                         : 128 Kbps\nChannel(s)                       : 2 channels\nSampling rate                    : 44.1 KHz\nCompression mode                 : Lossy\nDelay relative to video          : 42ms\nStream size                      : 2.66 MiB (0%)\nAlignment                        : Aligned on interleaves\nInterleave, duration             : 1188 ms (28.48 video frames)\nInterleave, preload duration     : 522 ms\nWriting library                  : LAME3.98\n","torrent":{"xt":"urn:btih:0d00c024989e00e269fead2b5f1af9573018365a","amp;dn":"John.Carter.BrRip.Xvid.Audio.Latino","amp;tr":["udp%3A%2F%2Ftracker.openbittorrent.com%3A80","udp%3A%2F%2Fopen.demonii.com%3A1337","udp%3A%2F%2Ftracker.coppersurfer.tk%3A6969","udp%3A%2F%2Fexodus.desync.com%3A6969"],"infoHash":"0d00c024989e00e269fead2b5f1af9573018365a","infoHashBuffer":{"type":"Buffer","data":[13,0,192,36,152,158,0,226,105,254,173,43,95,26,249,87,48,24,54,90]},"announce":[],"urlList":[]}}